# xmcd CD database file
#
# Track frame offsets:
#	150
#	14020
#	29900
#	47022
#	60677
#	73120
#	89867
#	100262
#	114062
#	129085
#	147885
#	164132
#
# Disc length: 2353 seconds
#
# Revision: 0
# Processed by: cddbd v1.5.1PL2 Copyright (c) Steve Scherf et al.
# Submitted via: CDex 1.51
#
DISCID=b0092f0c
DTITLE=Jonny Hill - Mitten im Leben
DYEAR=1996
DGENRE=Country
TTITLE0=Suchst du Gold
TTITLE1=Nimm mich mit in dein Leben
TTITLE2=Die dunkelsten Augen
TTITLE3=Stell die einmal vor...
TTITLE4=Hat er das Recht sie zu berühr'n?
TTITLE5=Ich war dieser Junge
TTITLE6=Rauch in den Haaren
TTITLE7=Der Weg, den du kreuzt
TTITLE8=Schnee von gestern
TTITLE9=Das Konzert
TTITLE10=Gewinner und Verlierer
TTITLE11=Und dann fängst Du wieder von vorne an
EXTD=YEAR: 1996
EXTT0=
EXTT1=
EXTT2=
EXTT3=
EXTT4=
EXTT5=
EXTT6=
EXTT7=
EXTT8=
EXTT9=
EXTT10=
EXTT11=
PLAYORDER=
